Patient4_TMGait_0pt7_02_right_09_GRF.mot
version=1
nRows=33
nColumns=19
inDegrees=no
endheader
time	F1x	F1y	F1z	M1x	M1y	M1z	F2x	F2y	F2z	M2x	M2y	M2z	EC1x	EC1y	EC1z	EC2x	EC2y	EC2z
9.36	-0.33298	779.4254	89.3093	-272.0139	-84.4903	778.1987	-13.0063	0.013905	-28.3949	8.2201	22.9752	3.3885	-0.0592	0.0182	-0.0073	-0.0462	0.0165	0.9585
9.3712	1.6558	771.3283	84.1098	-268.9184	-78.6078	765.3035	-8.8409	1.0126	-19.4115	6.0174	15.747	3.4291	-0.0592	0.0182	-0.0073	-0.0462	0.0165	0.9585
9.3824	3.3837	762.3724	79.324	-265.5005	-73.1028	751.6068	-5.3137	1.8894	-11.6838	4.1221	9.5367	3.4835	-0.0592	0.0182	-0.0073	-0.0462	0.0165	0.9585
9.3936	4.8907	753.1397	75.1921	-261.9957	-68.2059	737.8473	-2.5983	2.5827	-5.7193	2.6646	4.7449	3.5304	-0.0592	0.0182	-0.0073	-0.0462	0.0165	0.9585
9.4049	6.2697	744.1614	71.9054	-258.6034	-64.0797	724.6166	-0.73603	3.1217	-1.5481	1.66	1.4089	3.6389	-0.0592	0.0182	-0.0073	-0.0462	0.0165	0.9585
9.4161	7.7067	735.8589	69.3752	-255.4842	-60.6071	712.2413	0.43238	3.5028	1.075	1.0444	-0.68012	3.7604	-0.0592	0.0182	-0.0073	-0.0462	0.0165	0.9585
9.4273	9.2962	728.4909	67.5931	-252.7343	-57.7653	700.8819	1.024	3.762	2.4906	0.72813	-1.7883	3.9184	-0.0592	0.0182	-0.0073	-0.0462	0.0165	0.9585
9.4385	11.2028	722.1809	66.3928	-250.4069	-55.3737	690.5279	1.23	3.875	3.0584	0.60371	-2.2156	4.0239	-0.0592	0.0182	-0.0073	-0.0462	0.0165	0.9585
9.4497	13.4507	716.9375	65.6982	-248.5078	-53.3626	681.0964	1.1614	3.8343	3.082	0.57506	-2.1993	4.028	-0.0592	0.0182	-0.0073	-0.0462	0.0165	0.9585
9.4609	16.099	712.7585	65.388	-247.0386	-51.6083	672.4964	0.95249	3.5692	2.7987	0.5456	-1.9326	3.7976	-0.0592	0.0182	-0.0073	-0.0462	0.0165	0.9585
9.4721	19.138	709.6998	65.3624	-246.0108	-50.0207	664.74	0.66862	2.9952	2.3853	0.43002	-1.5538	3.225	-0.0592	0.0182	-0.0073	-0.0462	0.0165	0.9585
9.4834	22.544	707.8717	65.5914	-245.4504	-48.5724	657.8946	0.38422	1.9997	1.953	0.15179	-1.1597	2.1617	-0.0592	0.0182	-0.0073	-0.0462	0.0165	0.9585
9.4946	26.2897	707.4514	65.9925	-245.3982	-47.1877	652.1495	0.12926	0.47422	1.5776	-0.34994	-0.82299	0.47535	-0.0592	0.0182	-0.0073	-0.0462	0.0165	0.9585
9.5058	30.3069	708.5775	66.6015	-245.8764	-45.9105	647.6646	-0.026444	-1.6434	1.2881	-1.1077	-0.59111	-1.9149	-0.0592	0.0182	-0.0073	-0.0462	0.0165	0.9585
9.517	34.5499	711.33	67.3755	-246.8866	-44.714	644.5458	-0.031874	-4.3299	1.1029	-2.1083	-0.50479	-4.9859	-0.0592	0.0182	-0.0073	-0.0462	0.0165	0.9585
9.5282	38.9773	715.6302	68.3537	-248.3733	-43.6419	642.7751	0.19371	-7.3595	1.0255	-3.2574	-0.59703	-8.4772	-0.0592	0.0182	-0.0073	-0.0462	0.0165	0.9585
9.5394	43.5531	721.2439	69.5202	-250.2302	-42.6838	642.1741	0.7322	-10.2296	1.0647	-4.3501	-0.91485	-11.818	-0.0592	0.0182	-0.0073	-0.0462	0.0165	0.9585
9.5506	48.2162	727.7261	70.8607	-252.2824	-41.8341	642.4108	1.6567	-12.0235	1.2381	-5.0233	-1.515	-13.9511	-0.0592	0.0182	-0.0073	-0.0462	0.0165	0.9585
9.5619	52.8943	734.4068	72.3276	-254.2848	-41.0803	642.9739	3.0327	-11.3459	1.5692	-4.7261	-2.4535	-13.2816	-0.0592	0.0182	-0.0073	-0.0462	0.0165	0.9585
9.5731	57.4519	740.4784	73.7984	-255.9539	-40.3655	643.238	4.8497	-6.2441	2.0947	-2.6951	-3.7599	-7.5562	-0.0592	0.0182	-0.0073	-0.0462	0.0165	0.9585
9.5843	61.7876	745.0676	75.1222	-256.9982	-39.6163	642.5422	7.0247	5.7405	2.8214	2.0274	-5.3938	6.0523	-0.0592	0.0182	-0.0073	-0.0462	0.0165	0.9585
9.5955	65.737	747.3025	76.0799	-257.1417	-38.7137	640.2268	9.2752	27.3908	3.7346	10.5186	-7.2171	30.7577	-0.0592	0.0182	-0.0073	-0.0462	0.0165	0.9585
9.6067	69.1634	746.2287	76.4388	-256.0962	-37.5313	635.5622	11.1069	61.3084	4.7528	23.7839	-8.9263	69.5527	-0.0592	0.0182	-0.0073	-0.0462	0.0165	0.9585
9.6179	71.9307	740.7444	75.9559	-253.5345	-35.9353	627.6824	11.652	109.1439	5.6903	42.4476	-9.9597	124.3766	-0.0592	0.0182	-0.0073	-0.0462	0.0165	0.9585
9.6291	73.925	729.4711	74.3777	-249.0478	-33.7683	615.4289	9.65	170.381	6.2292	66.291	-9.4526	194.6773	-0.0592	0.0182	-0.0073	-0.0462	0.0165	0.9585
9.6404	75.0612	710.7495	71.5333	-242.1281	-30.9382	597.4117	3.4352	241.3286	5.9274	93.8465	-6.2837	276.2886	-0.0592	0.0182	-0.0073	-0.0462	0.0165	0.9585
9.6516	75.1623	682.8094	67.2836	-232.2207	-27.3929	572.1255	-7.3276	314.8129	4.0407	122.2775	0.48747	360.9694	-0.0592	0.0182	-0.0073	-0.0462	0.0165	0.9585
9.6628	73.9681	644.1424	61.7068	-218.8346	-23.3047	538.3055	-20.7638	382.287	-0.48236	148.2332	11.1874	438.7006	-0.0592	0.0182	-0.0073	-0.0462	0.0165	0.9585
9.674	71.1849	594.1403	55.0363	-201.7526	-18.9615	495.4437	-34.4732	439.2767	-7.528	169.9378	24.7074	503.9511	-0.0592	0.0182	-0.0073	-0.0462	0.0165	0.9585
9.6852	66.6135	533.5636	47.6788	-181.1879	-14.7446	444.1636	-46.9346	486.4797	-16.28	187.6263	39.5076	557.2855	-0.0592	0.0182	-0.0073	-0.0462	0.0165	0.9585
9.6964	60.2332	464.4556	40.1655	-157.7804	-11.0634	386.133	-57.0487	527.1587	-26.0344	202.5574	54.3743	602.2878	-0.0592	0.0182	-0.0073	-0.0462	0.0165	0.9585
9.7076	52.1688	390.0332	32.8822	-132.573	-8.1577	323.9898	-64.4471	564.729	-35.8864	216.0605	68.1654	642.9349	-0.0592	0.0182	-0.0073	-0.0462	0.0165	0.9585
9.7189	42.7293	314.3123	26.1687	-106.8953	-6.1841	261.0137	-69.0111	600.9685	-45.2777	228.8444	80.2251	681.3335	-0.0592	0.0182	-0.0073	-0.0462	0.0165	0.9585
